<svg id="visual" viewBox="0 0 960 540" width="960" height="540" xmlns="http://www.w3.org/2000/svg" xmlns:xlink="http://www.w3.org/1999/xlink" version="1.1"><rect x="0" y="0" width="960" height="540" fill="#001220"></rect><defs><linearGradient id="grad1_0" x1="43.8%" y1="0%" x2="100%" y2="100%"><stop offset="14.444444444444446%" stop-color="#001220" stop-opacity="1"></stop><stop offset="85.55555555555554%" stop-color="#001220" stop-opacity="1"></stop></linearGradient></defs><defs><linearGradient id="grad2_0" x1="0%" y1="0%" x2="56.3%" y2="100%"><stop offset="14.444444444444446%" stop-color="#001220" stop-opacity="1"></stop><stop offset="85.55555555555554%" stop-color="#001220" stop-opacity="1"></stop></linearGradient></defs><g transform="translate(960, 0)"><path d="M0 486C-69.1 485.3 -138.2 484.5 -186 449C-233.7 413.5 -260.2 343.2 -292 292C-323.9 240.9 -361.3 208.9 -394.5 163.4C-427.7 117.9 -456.9 59 -486 0L0 0Z" fill="#3cd4ef"></path></g><g transform="translate(0, 540)"><path d="M0 -486C62.1 -478.9 124.2 -471.7 186 -449C247.8 -426.3 309.3 -388 333.8 -333.8C358.2 -279.5 345.7 -209.4 364.9 -151.2C384.1 -92.9 435.1 -46.4 486 0L0 0Z" fill="#3cd4ef"></path></g></svg>