<svg id="visual" viewBox="0 0 960 540" width="960" height="540" xmlns="http://www.w3.org/2000/svg" xmlns:xlink="http://www.w3.org/1999/xlink" version="1.1"><path d="M0 109L14.5 102.7C29 96.3 58 83.7 87.2 77.3C116.3 71 145.7 71 174.8 74.7C204 78.3 233 85.7 262 81.2C291 76.7 320 60.3 349 55.8C378 51.3 407 58.7 436.2 67.7C465.3 76.7 494.7 87.3 523.8 90.8C553 94.3 582 90.7 611 80.8C640 71 669 55 698 50.5C727 46 756 53 785.2 62C814.3 71 843.7 82 872.8 91C902 100 931 107 945.5 110.5L960 114L960 0L945.5 0C931 0 902 0 872.8 0C843.7 0 814.3 0 785.2 0C756 0 727 0 698 0C669 0 640 0 611 0C582 0 553 0 523.8 0C494.7 0 465.3 0 436.2 0C407 0 378 0 349 0C320 0 291 0 262 0C233 0 204 0 174.8 0C145.7 0 116.3 0 87.2 0C58 0 29 0 14.5 0L0 0Z" fill="#42c6d3"></path><path d="M0 152L14.5 148.5C29 145 58 138 87.2 147C116.3 156 145.7 181 174.8 195.3C204 209.7 233 213.3 262 208.8C291 204.3 320 191.7 349 175.5C378 159.3 407 139.7 436.2 137.8C465.3 136 494.7 152 523.8 156.5C553 161 582 154 611 155C640 156 669 165 698 159.5C727 154 756 134 785.2 127.7C814.3 121.3 843.7 128.7 872.8 145C902 161.3 931 186.7 945.5 199.3L960 212L960 112L945.5 108.5C931 105 902 98 872.8 89C843.7 80 814.3 69 785.2 60C756 51 727 44 698 48.5C669 53 640 69 611 78.8C582 88.7 553 92.3 523.8 88.8C494.7 85.3 465.3 74.7 436.2 65.7C407 56.7 378 49.3 349 53.8C320 58.3 291 74.7 262 79.2C233 83.7 204 76.3 174.8 72.7C145.7 69 116.3 69 87.2 75.3C58 81.7 29 94.3 14.5 100.7L0 107Z" fill="#4ca3aa"></path><path d="M0 379L14.5 364.7C29 350.3 58 321.7 87.2 308.2C116.3 294.7 145.7 296.3 174.8 302.5C204 308.7 233 319.3 262 318.5C291 317.7 320 305.3 349 302.7C378 300 407 307 436.2 321.3C465.3 335.7 494.7 357.3 523.8 363.7C553 370 582 361 611 350.2C640 339.3 669 326.7 698 333C727 339.3 756 364.7 785.2 352.2C814.3 339.7 843.7 289.3 872.8 271.3C902 253.3 931 267.7 945.5 274.8L960 282L960 210L945.5 197.3C931 184.7 902 159.3 872.8 143C843.7 126.7 814.3 119.3 785.2 125.7C756 132 727 152 698 157.5C669 163 640 154 611 153C582 152 553 159 523.8 154.5C494.7 150 465.3 134 436.2 135.8C407 137.7 378 157.3 349 173.5C320 189.7 291 202.3 262 206.8C233 211.3 204 207.7 174.8 193.3C145.7 179 116.3 154 87.2 145C58 136 29 143 14.5 146.5L0 150Z" fill="#4d8184"></path><path d="M0 428L14.5 414.5C29 401 58 374 87.2 367.7C116.3 361.3 145.7 375.7 174.8 381.8C204 388 233 386 262 382.3C291 378.7 320 373.3 349 375.2C378 377 407 386 436.2 401.3C465.3 416.7 494.7 438.3 523.8 446.5C553 454.7 582 449.3 611 439.5C640 429.7 669 415.3 698 411.7C727 408 756 415 785.2 400.5C814.3 386 843.7 350 872.8 332C902 314 931 314 945.5 314L960 314L960 280L945.5 272.8C931 265.7 902 251.3 872.8 269.3C843.7 287.3 814.3 337.7 785.2 350.2C756 362.7 727 337.3 698 331C669 324.7 640 337.3 611 348.2C582 359 553 368 523.8 361.7C494.7 355.3 465.3 333.7 436.2 319.3C407 305 378 298 349 300.7C320 303.3 291 315.7 262 316.5C233 317.3 204 306.7 174.8 300.5C145.7 294.3 116.3 292.7 87.2 306.2C58 319.7 29 348.3 14.5 362.7L0 377Z" fill="#496061"></path><path d="M0 541L14.5 541C29 541 58 541 87.2 541C116.3 541 145.7 541 174.8 541C204 541 233 541 262 541C291 541 320 541 349 541C378 541 407 541 436.2 541C465.3 541 494.7 541 523.8 541C553 541 582 541 611 541C640 541 669 541 698 541C727 541 756 541 785.2 541C814.3 541 843.7 541 872.8 541C902 541 931 541 945.5 541L960 541L960 312L945.5 312C931 312 902 312 872.8 330C843.7 348 814.3 384 785.2 398.5C756 413 727 406 698 409.7C669 413.3 640 427.7 611 437.5C582 447.3 553 452.7 523.8 444.5C494.7 436.3 465.3 414.7 436.2 399.3C407 384 378 375 349 373.2C320 371.3 291 376.7 262 380.3C233 384 204 386 174.8 379.8C145.7 373.7 116.3 359.3 87.2 365.7C58 372 29 399 14.5 412.5L0 426Z" fill="#404141"></path></svg>