<svg id="visual" viewBox="0 0 960 540" width="960" height="540" xmlns="http://www.w3.org/2000/svg" xmlns:xlink="http://www.w3.org/1999/xlink" version="1.1"><path d="M0 98L87 98L87 55L175 55L175 39L262 39L262 87L349 87L349 87L436 87L436 77L524 77L524 109L611 109L611 77L698 77L698 50L785 50L785 66L873 66L873 104L960 104L960 33L960 0L960 0L873 0L873 0L785 0L785 0L698 0L698 0L611 0L611 0L524 0L524 0L436 0L436 0L349 0L349 0L262 0L262 0L175 0L175 0L87 0L87 0L0 0Z" fill="#69d2fa"></path><path d="M0 158L87 158L87 190L175 190L175 185L262 185L262 163L349 163L349 201L436 201L436 190L524 190L524 217L611 217L611 136L698 136L698 120L785 120L785 217L873 217L873 206L960 206L960 131L960 31L960 102L873 102L873 64L785 64L785 48L698 48L698 75L611 75L611 107L524 107L524 75L436 75L436 85L349 85L349 85L262 85L262 37L175 37L175 53L87 53L87 96L0 96Z" fill="#4eb7ea"></path><path d="M0 195L87 195L87 282L175 282L175 222L262 222L262 228L349 228L349 287L436 287L436 239L524 239L524 293L611 293L611 217L698 217L698 195L785 195L785 266L873 266L873 255L960 255L960 222L960 129L960 204L873 204L873 215L785 215L785 118L698 118L698 134L611 134L611 215L524 215L524 188L436 188L436 199L349 199L349 161L262 161L262 183L175 183L175 188L87 188L87 156L0 156Z" fill="#379cd8"></path><path d="M0 433L87 433L87 433L175 433L175 341L262 341L262 320L349 320L349 460L436 460L436 438L524 438L524 428L611 428L611 411L698 411L698 390L785 390L785 379L873 379L873 455L960 455L960 325L960 220L960 253L873 253L873 264L785 264L785 193L698 193L698 215L611 215L611 291L524 291L524 237L436 237L436 285L349 285L349 226L262 226L262 220L175 220L175 280L87 280L87 193L0 193Z" fill="#2881c5"></path><path d="M0 541L87 541L87 541L175 541L175 541L262 541L262 541L349 541L349 541L436 541L436 541L524 541L524 541L611 541L611 541L698 541L698 541L785 541L785 541L873 541L873 541L960 541L960 541L960 323L960 453L873 453L873 377L785 377L785 388L698 388L698 409L611 409L611 426L524 426L524 436L436 436L436 458L349 458L349 318L262 318L262 339L175 339L175 431L87 431L87 431L0 431Z" fill="#2367b0"></path></svg>