<svg id="visual" viewBox="0 0 960 540" width="960" height="540" xmlns="http://www.w3.org/2000/svg" xmlns:xlink="http://www.w3.org/1999/xlink" version="1.1"><path d="M0 158L14.5 162.5C29 167 58 176 87.2 172.3C116.3 168.7 145.7 152.3 174.8 157.7C204 163 233 190 262 198.2C291 206.3 320 195.7 349 184.8C378 174 407 163 436.2 152.2C465.3 141.3 494.7 130.7 523.8 132.5C553 134.3 582 148.7 611 146C640 143.3 669 123.7 698 120C727 116.3 756 128.7 785.2 146.7C814.3 164.7 843.7 188.3 872.8 202.8C902 217.3 931 222.7 945.5 225.3L960 228L960 0L945.5 0C931 0 902 0 872.8 0C843.7 0 814.3 0 785.2 0C756 0 727 0 698 0C669 0 640 0 611 0C582 0 553 0 523.8 0C494.7 0 465.3 0 436.2 0C407 0 378 0 349 0C320 0 291 0 262 0C233 0 204 0 174.8 0C145.7 0 116.3 0 87.2 0C58 0 29 0 14.5 0L0 0Z" fill="#ffffff"></path><path d="M0 287L14.5 283.5C29 280 58 273 87.2 279.3C116.3 285.7 145.7 305.3 174.8 311.5C204 317.7 233 310.3 262 306.7C291 303 320 303 349 303C378 303 407 303 436.2 310.3C465.3 317.7 494.7 332.3 523.8 339.7C553 347 582 347 611 336.2C640 325.3 669 303.7 698 293.7C727 283.7 756 285.3 785.2 288C814.3 290.7 843.7 294.3 872.8 296.2C902 298 931 298 945.5 298L960 298L960 226L945.5 223.3C931 220.7 902 215.3 872.8 200.8C843.7 186.3 814.3 162.7 785.2 144.7C756 126.7 727 114.3 698 118C669 121.7 640 141.3 611 144C582 146.7 553 132.3 523.8 130.5C494.7 128.7 465.3 139.3 436.2 150.2C407 161 378 172 349 182.8C320 193.7 291 204.3 262 196.2C233 188 204 161 174.8 155.7C145.7 150.3 116.3 166.7 87.2 170.3C58 174 29 165 14.5 160.5L0 156Z" fill="#d7f1f4"></path><path d="M0 320L14.5 323.5C29 327 58 334 87.2 346.5C116.3 359 145.7 377 174.8 383.3C204 389.7 233 384.3 262 382.5C291 380.7 320 382.3 349 377.8C378 373.3 407 362.7 436.2 366.3C465.3 370 494.7 388 523.8 398.8C553 409.7 582 413.3 611 399C640 384.7 669 352.3 698 346C727 339.7 756 359.3 785.2 362C814.3 364.7 843.7 350.3 872.8 352.2C902 354 931 372 945.5 381L960 390L960 296L945.5 296C931 296 902 296 872.8 294.2C843.7 292.3 814.3 288.7 785.2 286C756 283.3 727 281.7 698 291.7C669 301.7 640 323.3 611 334.2C582 345 553 345 523.8 337.7C494.7 330.3 465.3 315.7 436.2 308.3C407 301 378 301 349 301C320 301 291 301 262 304.7C233 308.3 204 315.7 174.8 309.5C145.7 303.3 116.3 283.7 87.2 277.3C58 271 29 278 14.5 281.5L0 285Z" fill="#aee3e9"></path><path d="M0 406L14.5 406C29 406 58 406 87.2 415.8C116.3 425.7 145.7 445.3 174.8 458C204 470.7 233 476.3 262 471C291 465.7 320 449.3 349 440.3C378 431.3 407 429.7 436.2 432.3C465.3 435 494.7 442 523.8 450C553 458 582 467 611 459.8C640 452.7 669 429.3 698 419.5C727 409.7 756 413.3 785.2 408.8C814.3 404.3 843.7 391.7 872.8 393.5C902 395.3 931 411.7 945.5 419.8L960 428L960 388L945.5 379C931 370 902 352 872.8 350.2C843.7 348.3 814.3 362.7 785.2 360C756 357.3 727 337.7 698 344C669 350.3 640 382.7 611 397C582 411.3 553 407.7 523.8 396.8C494.7 386 465.3 368 436.2 364.3C407 360.7 378 371.3 349 375.8C320 380.3 291 378.7 262 380.5C233 382.3 204 387.7 174.8 381.3C145.7 375 116.3 357 87.2 344.5C58 332 29 325 14.5 321.5L0 318Z" fill="#80d5de"></path><path d="M0 541L14.5 541C29 541 58 541 87.2 541C116.3 541 145.7 541 174.8 541C204 541 233 541 262 541C291 541 320 541 349 541C378 541 407 541 436.2 541C465.3 541 494.7 541 523.8 541C553 541 582 541 611 541C640 541 669 541 698 541C727 541 756 541 785.2 541C814.3 541 843.7 541 872.8 541C902 541 931 541 945.5 541L960 541L960 426L945.5 417.8C931 409.7 902 393.3 872.8 391.5C843.7 389.7 814.3 402.3 785.2 406.8C756 411.3 727 407.7 698 417.5C669 427.3 640 450.7 611 457.8C582 465 553 456 523.8 448C494.7 440 465.3 433 436.2 430.3C407 427.7 378 429.3 349 438.3C320 447.3 291 463.7 262 469C233 474.3 204 468.7 174.8 456C145.7 443.3 116.3 423.7 87.2 413.8C58 404 29 404 14.5 404L0 404Z" fill="#42c6d3"></path></svg>